<?xml version="1.0" encoding="UTF-8" standalone="no"?>
<svg
   xmlns:dc="http://purl.org/dc/elements/1.1/"
   xmlns:cc="http://creativecommons.org/ns#"
   xmlns:rdf="http://www.w3.org/1999/02/22-rdf-syntax-ns#"
   xmlns:svg="http://www.w3.org/2000/svg"
   xmlns="http://www.w3.org/2000/svg"
   xmlns:sodipodi="http://sodipodi.sourceforge.net/DTD/sodipodi-0.dtd"
   xmlns:inkscape="http://www.inkscape.org/namespaces/inkscape"
   version="1.1"
   id="Capa_1"
   x="0px"
   y="0px"
   viewBox="0 0 465 465"
   style="enable-background:new 0 0 465 465;"
   xml:space="preserve"
   sodipodi:docname="vinyl-placeholder-nord.svg"
   inkscape:version="1.0.2 (e86c870879, 2021-01-15)"><metadata
   id="metadata63"><rdf:RDF><cc:Work
       rdf:about=""><dc:format>image/svg+xml</dc:format><dc:type
         rdf:resource="http://purl.org/dc/dcmitype/StillImage" /><dc:title></dc:title></cc:Work></rdf:RDF></metadata><defs
   id="defs61" /><sodipodi:namedview
   pagecolor="#ffffff"
   bordercolor="#666666"
   borderopacity="1"
   objecttolerance="10"
   gridtolerance="10"
   guidetolerance="10"
   inkscape:pageopacity="0"
   inkscape:pageshadow="2"
   inkscape:window-width="934"
   inkscape:window-height="1000"
   id="namedview59"
   showgrid="false"
   inkscape:zoom="0.42821778"
   inkscape:cx="191.19352"
   inkscape:cy="187.05578"
   inkscape:window-x="22"
   inkscape:window-y="54"
   inkscape:window-maximized="0"
   inkscape:current-layer="Capa_1" />
<g
   id="g26"
   style="fill:#d8dee9;fill-opacity:1">
	<path
   d="M 396.94,68.06 C 353.052,24.171 294.652,0 232.5,0 170.348,0 111.948,24.171 68.06,68.06 24.171,111.949 0,170.348 0,232.5 0,294.652 24.171,353.051 68.06,396.94 111.948,440.829 170.348,465 232.5,465 294.652,465 353.052,440.829 396.94,396.94 440.829,353.051 465,294.652 465,232.5 465,170.348 440.829,111.949 396.94,68.06 Z M 232.5,450 C 112.57,450 15,352.43 15,232.5 15,112.57 112.57,15 232.5,15 352.43,15 450,112.57 450,232.5 450,352.43 352.43,450 232.5,450 Z"
   id="path2"
   style="fill:#d8dee9;fill-opacity:1" />
	<path
   d="m 232.5,412.5 c -99.252,0 -180,-80.748 -180,-180 0,-4.142 -3.357,-7.5 -7.5,-7.5 -4.143,0 -7.5,3.358 -7.5,7.5 0,52.127 20.272,101.107 57.083,137.917 36.81,36.81 85.79,57.083 137.917,57.083 4.143,0 7.5,-3.358 7.5,-7.5 0,-4.142 -3.357,-7.5 -7.5,-7.5 z"
   id="path4"
   style="fill:#d8dee9;fill-opacity:1" />
	<path
   d="m 232.5,52.5 c 42.792,0 84.245,15.24 116.722,42.912 1.412,1.203 3.141,1.792 4.86,1.792 2.121,0 4.229,-0.895 5.713,-2.636 2.687,-3.153 2.308,-7.887 -0.845,-10.573 C 323.762,54.012 278.854,37.5 232.5,37.5 c -4.143,0 -7.5,3.358 -7.5,7.5 0,4.142 3.357,7.5 7.5,7.5 z"
   id="path6"
   style="fill:#d8dee9;fill-opacity:1" />
	<path
   d="m 381.008,106.053 c -2.687,-3.153 -7.42,-3.531 -10.573,-0.845 -3.152,2.687 -3.531,7.42 -0.845,10.573 27.671,32.477 42.91,73.928 42.91,116.719 0,4.142 3.357,7.5 7.5,7.5 4.143,0 7.5,-3.358 7.5,-7.5 0,-46.353 -16.512,-91.259 -46.492,-126.447 z"
   id="path8"
   style="fill:#d8dee9;fill-opacity:1" />
	<path
   d="m 232.5,75 c -4.143,0 -7.5,3.358 -7.5,7.5 0,4.142 3.357,7.5 7.5,7.5 78.575,0 142.5,63.925 142.5,142.5 0,4.142 3.357,7.5 7.5,7.5 4.143,0 7.5,-3.358 7.5,-7.5 0,-42.103 -16.374,-81.663 -46.105,-111.395 C 314.164,91.373 274.603,75 232.5,75 Z"
   id="path10"
   style="fill:#d8dee9;fill-opacity:1" />
	<path
   d="m 163.958,374.368 c 1.052,0.508 2.164,0.75 3.26,0.75 2.786,0 5.463,-1.56 6.757,-4.237 1.804,-3.729 0.242,-8.214 -3.487,-10.017 C 120.841,336.86 90,287.675 90,232.5 c 0,-4.142 -3.357,-7.5 -7.5,-7.5 -4.143,0 -7.5,3.358 -7.5,7.5 0,30.195 8.553,59.525 24.732,84.819 15.75,24.622 37.959,44.349 64.226,57.049 z"
   id="path12"
   style="fill:#d8dee9;fill-opacity:1" />
	<path
   d="m 232.5,375 c -11.938,0 -23.799,-1.474 -35.25,-4.382 -4.012,-1.02 -8.096,1.409 -9.115,5.424 -1.019,4.015 1.409,8.096 5.424,9.115 12.657,3.214 25.758,4.843 38.941,4.843 4.143,0 7.5,-3.358 7.5,-7.5 0,-4.142 -3.357,-7.5 -7.5,-7.5 z"
   id="path14"
   style="fill:#d8dee9;fill-opacity:1" />
	<path
   d="m 232.5,337.5 c -29.979,0 -58.59,-12.839 -78.499,-35.224 -2.754,-3.094 -7.493,-3.373 -10.589,-0.62 -3.095,2.752 -3.373,7.493 -0.62,10.588 22.753,25.583 55.45,40.255 89.708,40.255 4.143,0 7.5,-3.358 7.5,-7.5 0,-4.142 -3.357,-7.499 -7.5,-7.499 z"
   id="path16"
   style="fill:#d8dee9;fill-opacity:1" />
	<path
   d="m 131.624,289.889 c 1.117,0 2.252,-0.25 3.321,-0.78 3.712,-1.837 5.232,-6.336 3.395,-10.048 -7.192,-14.534 -10.84,-30.199 -10.84,-46.561 0,-4.142 -3.357,-7.5 -7.5,-7.5 -4.143,0 -7.5,3.358 -7.5,7.5 0,18.69 4.171,36.594 12.396,53.214 1.308,2.643 3.965,4.175 6.728,4.175 z"
   id="path18"
   style="fill:#d8dee9;fill-opacity:1" />
	<path
   d="m 232.5,112.5 c -4.143,0 -7.5,3.358 -7.5,7.5 0,4.142 3.357,7.5 7.5,7.5 57.897,0 105,47.103 105,105 0,4.142 3.357,7.5 7.5,7.5 4.143,0 7.5,-3.358 7.5,-7.5 0,-66.168 -53.832,-120 -120,-120 z"
   id="path20"
   style="fill:#d8dee9;fill-opacity:1" />
	<path
   d="m 232.5,212.5 c -11.028,0 -20,8.972 -20,20 0,11.028 8.972,20 20,20 11.028,0 20,-8.972 20,-20 0,-11.028 -8.972,-20 -20,-20 z m 0,25 c -2.757,0 -5,-2.243 -5,-5 0,-2.757 2.243,-5 5,-5 2.757,0 5,2.243 5,5 0,2.757 -2.243,5 -5,5 z"
   id="path22"
   style="fill:#d8dee9;fill-opacity:1" />
	<path
   d="m 232.5,149.5 c -45.767,0 -83,37.234 -83,83 0,45.766 37.233,83 83,83 45.767,0 83,-37.234 83,-83 0,-45.766 -37.233,-83 -83,-83 z m 0,151 c -37.495,0 -68,-30.505 -68,-68 0,-37.495 30.505,-68 68,-68 37.495,0 68,30.505 68,68 0,37.495 -30.505,68 -68,68 z"
   id="path24"
   style="fill:#d8dee9;fill-opacity:1" />
</g>
<g
   id="g28">
</g>
<g
   id="g30">
</g>
<g
   id="g32">
</g>
<g
   id="g34">
</g>
<g
   id="g36">
</g>
<g
   id="g38">
</g>
<g
   id="g40">
</g>
<g
   id="g42">
</g>
<g
   id="g44">
</g>
<g
   id="g46">
</g>
<g
   id="g48">
</g>
<g
   id="g50">
</g>
<g
   id="g52">
</g>
<g
   id="g54">
</g>
<g
   id="g56">
</g>
</svg>
