<?xml version="1.0" encoding="UTF-8" standalone="no"?>
<svg
   xmlns:dc="http://purl.org/dc/elements/1.1/"
   xmlns:cc="http://creativecommons.org/ns#"
   xmlns:rdf="http://www.w3.org/1999/02/22-rdf-syntax-ns#"
   xmlns:svg="http://www.w3.org/2000/svg"
   xmlns="http://www.w3.org/2000/svg"
   xmlns:sodipodi="http://sodipodi.sourceforge.net/DTD/sodipodi-0.dtd"
   xmlns:inkscape="http://www.inkscape.org/namespaces/inkscape"
   width="240"
   height="240"
   version="1.1"
   id="svg2032"
   sodipodi:docname="qtile.svg"
   inkscape:version="1.0.2 (e86c870879, 2021-01-15)">
  <metadata
     id="metadata2038">
    <rdf:RDF>
      <cc:Work
         rdf:about="">
        <dc:format>image/svg+xml</dc:format>
        <dc:type
           rdf:resource="http://purl.org/dc/dcmitype/StillImage" />
        <dc:title></dc:title>
      </cc:Work>
    </rdf:RDF>
  </metadata>
  <defs
     id="defs2036">
    <inkscape:path-effect
       effect="fillet_chamfer"
       id="path-effect2650"
       is_visible="true"
       lpeversion="1"
       satellites_param="F,1,0,1,0,0.12,0,1 @ F,1,0,1,0,0.12,0,1 @ F,1,0,1,0,0.12,0,1 @ F,1,0,1,0,0.12,0,1 @ F,1,0,1,0,0.12,0,1 @ F,1,0,1,0,0.12,0,1 @ F,1,0,1,0,0.12,0,1 @ F,1,0,1,0,0.12,0,1 @ F,1,0,1,0,0.12,0,1 @ F,1,0,1,0,0.12,0,1 @ F,1,0,1,0,0.12,0,1 @ F,1,0,1,0,0.12,0,1"
       unit="px"
       method="auto"
       mode="F"
       radius="12"
       chamfer_steps="1"
       flexible="true"
       use_knot_distance="true"
       apply_no_radius="true"
       apply_with_radius="true"
       only_selected="false"
       hide_knots="false" />
  </defs>
  <sodipodi:namedview
     pagecolor="#ffffff"
     bordercolor="#666666"
     borderopacity="1"
     objecttolerance="10"
     gridtolerance="10"
     guidetolerance="10"
     inkscape:pageopacity="0"
     inkscape:pageshadow="2"
     inkscape:window-width="1920"
     inkscape:window-height="1048"
     id="namedview2034"
     showgrid="false"
     inkscape:zoom="1.7682675"
     inkscape:cx="82.325968"
     inkscape:cy="101.98817"
     inkscape:window-x="0"
     inkscape:window-y="32"
     inkscape:window-maximized="1"
     inkscape:current-layer="svg2032" />
  <path
     id="path2619"
     style="fill:#000000;stroke-width:12"
     d="M 100.62878,21.874834 C 60.93803,29.665622 29.665622,60.93803 21.874834,100.62878 c -2.070271,10.54716 -2.070271,28.19528 0,38.74244 8.581867,43.72096 45.656126,77.22719 91.089216,80.3851 3.87882,0.2696 10.1932,0.26939 14.07171,-0.004 15.48504,-1.09235 30.51532,-5.77667 43.89093,-13.69224 2.36166,-1.39761 2.63882,-4.2093 0.69823,-6.15003 l -23.49289,-23.49446 c -1.25623,-1.25631 -3.57144,-1.64535 -5.21312,-0.96668 -3.65077,1.50924 -7.43532,2.6516 -11.29754,3.41436 -6.32675,1.24949 -16.91581,1.2542 -23.2441,0.012 -23.814452,-4.67447 -42.577897,-23.43792 -47.252369,-47.25237 -1.242163,-6.32829 -1.242163,-16.91717 0,-23.24546 4.674472,-23.814452 23.437917,-42.577897 47.252369,-47.252369 6.32829,-1.242163 16.91717,-1.242163 23.24546,0 26.55463,5.212334 46.829,27.942428 48.29259,55.659749 0.0937,1.77393 0.0937,4.6568 -0.002,6.43065 -0.33208,6.18912 -1.62102,12.28616 -3.81773,18.07438 -0.97353,2.5652 -0.38035,6.141 1.56024,8.08172 l 20.78835,20.78973 c 2.74991,2.7501 6.74162,2.35971 8.65212,-1.02684 5.24364,-9.2949 8.95256,-19.3466 11.00955,-29.76522 2.08188,-10.54469 2.08909,-28.19313 0.0188,-38.74029 -7.79079,-39.69075 -39.0632,-70.963158 -78.75395,-78.753946 -10.54716,-2.070271 -28.19528,-2.070271 -38.74244,0 z"
     inkscape:path-effect="#path-effect2650"
     inkscape:original-d="M 120 20 A 100 100 0 0 0 20 120 A 100 100 0 0 0 120 220 A 100 100 0 0 0 175.13867 203.42383 L 145.85742 174.14062 A 60 60 0 0 1 120 180 A 60 60 0 0 1 60 120 A 60 60 0 0 1 120 60 A 60 60 0 0 1 180 120 A 60 60 0 0 1 174.14258 145.85742 L 203.42383 175.14062 A 100 100 0 0 0 220 120 A 100 100 0 0 0 120 20 z " />
  <rect
     style="fill:#000000;stroke-width:10.26"
     id="rect2626-3"
     width="115.425"
     height="34.200001"
     x="177.02177"
     y="-16.898043"
     rx="17.1"
     ry="17.1"
     transform="rotate(45)" />
</svg>
